<svg xmlns="http://www.w3.org/2000/svg" xmlns:xlink="http://www.w3.org/1999/xlink" version="1.1" x="0px" y="0px" width="264px" height="64px" viewBox="0 0 264 64" enable-background="new 0 0 264 64" xml:space="preserve"><style>.style0{fill:	#444444;}.style1{fill:	#323232;}.style2{fill:	#FFFFFF;}</style><rect width="264" height="64" class="style0"/><g><circle cx="34.9" cy="32" r="32" class="style1"/><g><g><path d="M49.622 13.126c-2.6 2.699-2.658 4.605-5.83 7.428c-2.521-1.445-5.828-2.117-9.918-2.08 c-2.598 0.025-4.883 0.088-6.961 0.947c-3.375-3.916-2.688-5.68-4.646-8.141c-2.199-2.766-6.756-2.729-8.094 0.1 c-1.098 2.3 1 4.1 2.8 4.914c2.318 1.1 3.9 2 5.5 6.28c-2.619 2.48-3.867 5.975-3.859 10.9 c0.021 11.5 8.8 9.4 7.8 26.123l14.238-0.004c-0.277-15.563 9.186-14.441 9.186-26.037c0-4.896 0.23-7.762-2.078-10.234 c1.721-1.763 3.104-4.003 5.477-4.513c2.799-0.6 4.59-2 4.389-4.197C57.3 11.2 51.8 10.8 49.6 13.126z M24.227 28.9 c0-1.474 1.451-2.668 3.241-2.668c1.791 0 3.2 1.2 3.2 2.668c0 1.473-1.452 2.667-3.242 2.7 C25.678 31.5 24.2 30.3 24.2 28.861z M34.973 44.37c-4.76 0.003-9.027-1.122-9.027-4.897 c0-2.298 17.315-2.322 17.315-0.41C43.261 42 38.9 44.4 35 44.37z M41.237 31.626c-1.79 0-3.241-1.194-3.241-2.667 c0-1.474 1.451-2.668 3.241-2.668c1.791 0 3.2 1.2 3.2 2.668C44.479 30.4 43 31.6 41.2 31.626z" class="style2"/></g></g></g><g><path d="M74.56 45.37V17.86l2.338-0.422V35.14c0.598-0.574 1.269-1.233 2.013-1.978s1.494-1.5 2.25-2.268 s1.471-1.512 2.145-2.232s1.251-1.356 1.731-1.907h2.813c-0.551 0.574-1.175 1.222-1.872 1.942s-1.424 1.471-2.18 2.2 s-1.506 1.544-2.25 2.294s-1.415 1.424-2.013 2.021c0.738 0.5 1.5 1.2 2.4 1.942s1.696 1.6 2.5 2.6 s1.605 1.9 2.3 2.839s1.351 1.9 1.9 2.76h-2.777c-0.574-0.961-1.228-1.904-1.96-2.83s-1.5-1.796-2.303-2.61 s-1.605-1.559-2.408-2.232s-1.567-1.233-2.294-1.679v9.352H74.56z" class="style2"/><path d="M92.332 40.853V17.808l2.338-0.422v23.396c0 0.6 0.1 1 0.2 1.38s0.272 0.6 0.5 0.8 s0.492 0.4 0.8 0.457s0.768 0.2 1.2 0.255l-0.334 1.986c-0.797-0.024-1.488-0.126-2.074-0.307s-1.075-0.464-1.468-0.849 c-0.393-0.386-0.691-0.872-0.896-1.461C92.434 42.5 92.3 41.7 92.3 40.853z" class="style2"/><path d="M100.435 36.049c0-1.628 0.234-3.051 0.702-4.269s1.08-2.234 1.835-3.048 c0.755-0.814 1.616-1.417 2.582-1.81c0.966-0.392 1.964-0.588 2.994-0.588c2.304 0 4.1 0.7 5.5 2.2 c1.365 1.5 2 3.8 2 6.866c0 0.188-0.006 0.382-0.018 0.576c-0.012 0.195-0.03 0.376-0.054 0.541h-13.129 c0.07 2.3 0.6 4 1.7 5.265c1.056 1.2 2.7 1.8 5.1 1.837c1.283 0 2.295-0.12 3.037-0.36s1.283-0.448 1.625-0.624 l0.449 2.021c-0.342 0.188-0.979 0.416-1.91 0.686c-0.932 0.27-2.022 0.404-3.271 0.404c-1.627 0-3.018-0.24-4.171-0.722 c-1.154-0.48-2.102-1.154-2.846-2.021c-0.744-0.867-1.283-1.894-1.616-3.078C100.602 38.8 100.4 37.5 100.4 36.049z M102.966 34.56h10.67c-0.047-1.945-0.502-3.46-1.364-4.544c-0.863-1.084-2.087-1.626-3.671-1.626c-0.845 0-1.6 0.17-2.263 0.5 s-1.241 0.791-1.734 1.354s-0.877 1.216-1.153 1.96S103.013 33.7 103 34.56z" class="style2"/><path d="M120.685 21.147c0-0.551 0.17-0.99 0.51-1.318s0.75-0.492 1.23-0.492s0.888 0.2 1.2 0.5 s0.501 0.8 0.5 1.318s-0.167 0.987-0.501 1.31s-0.741 0.483-1.222 0.483s-0.891-0.161-1.23-0.483 S120.685 21.7 120.7 21.147z M121.265 45.37V26.755h2.338V45.37H121.265z" class="style2"/><path d="M129.791 45.37V27.405c0.691-0.188 1.626-0.401 2.804-0.642c1.177-0.24 2.623-0.36 4.333-0.36 c1.418 0 2.6 0.2 3.5 0.606s1.699 1 2.3 1.74s0.971 1.7 1.2 2.725s0.352 2.2 0.4 3.489V45.37h-2.338v-9.65 c0-1.324-0.088-2.44-0.264-3.349s-0.475-1.649-0.896-2.224s-0.977-0.987-1.662-1.239s-1.543-0.378-2.574-0.378 c-1.102 0-2.055 0.059-2.857 0.176c-0.802 0.117-1.327 0.223-1.573 0.316V45.37H129.791z" class="style2"/><path d="M149.953 45.37V25.183c0-2.429 0.635-4.333 1.906-5.711c1.271-1.379 3.191-2.068 5.758-2.068 c1.008 0 1.9 0.1 2.7 0.266s1.346 0.3 1.7 0.497l-0.826 3.631c-0.41-0.188-0.885-0.343-1.424-0.466 s-1.125-0.185-1.758-0.185c-0.691 0-1.277 0.103-1.758 0.308s-0.865 0.486-1.152 0.844s-0.488 0.794-0.605 1.3 s-0.176 1.072-0.176 1.67v1.266h6.838v3.639h-6.838V45.37H149.953z" class="style2"/><path d="M164.35 45.37V27.468c0.844-0.323 1.893-0.625 3.146-0.907s2.648-0.422 4.184-0.422 c0.293 0 0.6 0 1 0.065s0.77 0.1 1.1 0.158c0.381 0.1 0.8 0.1 1.1 0.222s0.65 0.2 0.9 0.241l-0.756 3.6 c-0.363-0.117-0.861-0.243-1.494-0.378s-1.371-0.202-2.215-0.202c-0.48 0-0.99 0.05-1.529 0.149s-0.914 0.185-1.125 0.255V45.37 H164.35z" class="style2"/><path d="M177.797 36.054c0-1.652 0.244-3.105 0.736-4.359c0.49-1.254 1.145-2.294 1.963-3.12 c0.816-0.826 1.752-1.45 2.803-1.872c1.053-0.422 2.127-0.633 3.225-0.633c2.594 0 4.6 0.8 6.1 2.4 c1.453 1.6 2.2 4 2.2 7.198c0 0.234-0.006 0.504-0.018 0.809s-0.029 0.574-0.053 0.809h-12.445 c0.117 1.5 0.7 2.7 1.6 3.542c0.953 0.8 2.3 1.3 4.1 1.257c1.057 0 2.023-0.097 2.904-0.292 c0.879-0.195 1.57-0.404 2.076-0.629l0.563 3.551c-0.234 0.115-0.564 0.24-0.986 0.374s-0.902 0.253-1.443 0.4 c-0.539 0.105-1.119 0.195-1.74 0.271c-0.623 0.075-1.262 0.113-1.918 0.113c-1.65 0-3.084-0.246-4.307-0.738 c-1.221-0.492-2.227-1.178-3.016-2.057s-1.377-1.91-1.762-3.094C177.988 38.8 177.8 37.5 177.8 36.054z M182.297 34.1 h8.121c0-0.598-0.086-1.166-0.256-1.705s-0.416-1.008-0.74-1.406c-0.322-0.398-0.719-0.712-1.189-0.94 c-0.469-0.229-1.027-0.343-1.672-0.343c-0.67 0-1.258 0.126-1.762 0.378c-0.506 0.252-0.936 0.583-1.287 1 s-0.625 0.879-0.818 1.406C182.498 33 182.4 33.6 182.3 34.103z" class="style2"/><path d="M199.172 37.091V26.544h4.359v9.884c0 2 0.3 3.5 0.9 4.334s1.615 1.3 3.1 1.3 c0.527 0 1.086-0.026 1.678-0.079s1.029-0.115 1.311-0.186V26.544h4.359V44.8c-0.844 0.209-1.938 0.429-3.279 0.7 s-2.814 0.349-4.42 0.349c-1.512 0-2.777-0.217-3.797-0.65s-1.838-1.034-2.453-1.802s-1.055-1.685-1.318-2.751 S199.172 38.4 199.2 37.091z" class="style2"/><path d="M220.371 45.37V27.159c0.844-0.234 1.936-0.463 3.277-0.686s2.828-0.334 4.457-0.334 c1.535 0 2.8 0.2 3.9 0.633s1.854 1 2.5 1.767s1.049 1.7 1.3 2.733s0.379 2.2 0.4 3.516V45.37h-4.359v-9.896 c0-1.008-0.068-1.866-0.203-2.575s-0.352-1.286-0.65-1.731s-0.705-0.771-1.221-0.976s-1.143-0.308-1.881-0.308 c-0.551 0-1.129 0.038-1.732 0.114s-1.045 0.138-1.326 0.185V45.37H220.371z" class="style2"/><path d="M240.375 36.036c0-1.491 0.188-2.844 0.563-4.059c0.375-1.215 0.922-2.257 1.643-3.125 s1.598-1.538 2.629-2.007s2.215-0.705 3.551-0.705c0.914 0 1.7 0.1 2.4 0.325s1.299 0.5 1.8 0.729v-9.035l4.359-0.721 V44.8c-0.867 0.267-1.955 0.508-3.262 0.723s-2.68 0.322-4.121 0.322c-1.488 0-2.822-0.228-4-0.685 c-1.178-0.456-2.18-1.111-3.006-1.965s-1.461-1.883-1.906-3.088S240.375 37.5 240.4 36.036z M244.84 35.9 c0 1.9 0.5 3.4 1.4 4.54s2.174 1.6 3.8 1.648c0.691 0 1.283-0.032 1.775-0.097s0.896-0.133 1.213-0.203V30.977 c-0.387-0.27-0.896-0.52-1.529-0.749s-1.313-0.344-2.039-0.344c-1.582 0-2.74 0.541-3.473 1.622S244.84 34.1 244.8 35.912z" class="style2"/></g><g></g><g></g><g></g><g></g><g></g><g></g><g></g><g></g><g></g><g></g><g></g><g></g><g></g><g></g><g></g></svg>