<svg xmlns="http://www.w3.org/2000/svg" xmlns:xlink="http://www.w3.org/1999/xlink" version="1.1" x="0px" y="0px" width="64px" height="64px" viewBox="0 0 64 64" enable-background="new 0 0 64 64" xml:space="preserve"><g><circle fill="#323232" cx="31.9" cy="32" r="32"/><g><g><path fill="#FFFFFF" d="M46.624 13.125c-2.601 2.7-2.659 4.605-5.833 7.428c-2.52-1.444-5.826-2.116-9.917-2.079 c-2.597 0.024-4.884 0.088-6.959 0.946c-3.376-3.915-2.688-5.679-4.646-8.141c-2.202-2.765-6.756-2.729-8.096 0.1 c-1.097 2.3 1 4 2.8 4.914c2.317 1.1 3.9 2 5.5 6.281c-2.617 2.48-3.867 5.975-3.857 10.9 c0.02 11.5 8.8 9.4 7.8 26.123l14.239-0.003c-0.277-15.563 9.188-14.442 9.188-26.039c0-4.896 0.229-7.761-2.081-10.235 c1.722-1.764 3.103-4.004 5.476-4.513c2.801-0.6 4.591-2.001 4.39-4.198C54.301 11.2 48.8 10.8 46.6 13.125z M21.227 28.862c0-1.474 1.451-2.668 3.242-2.668c1.79 0 3.2 1.2 3.2 2.668c0 1.473-1.451 2.667-3.241 2.7 C22.678 31.5 21.2 30.3 21.2 28.862z M31.974 44.371c-4.76 0.004-9.027-1.121-9.027-4.896 c0-2.298 16.892-2.258 17.315-0.411C40.92 41.9 35.9 44.4 32 44.371z M38.238 31.626c-1.79 0-3.241-1.194-3.241-2.667 s1.451-2.667 3.241-2.667c1.791 0 3.2 1.2 3.2 2.667S40.029 31.6 38.2 31.626z"/></g></g></g></svg>