<svg xmlns="http://www.w3.org/2000/svg" xmlns:xlink="http://www.w3.org/1999/xlink" version="1.1" x="0px" y="0px" width="64px" height="64px" viewBox="0 0 64 64" enable-background="new 0 0 64 64" xml:space="preserve"><g><circle fill="#323232" cx="31.9" cy="32" r="32"/><g><g><path fill="#FFFFFF" d="M55.092 20.152c-0.973-1.98-2.588-3.895-5.701-3.803c-4.146 0.123-6.734 2.124-8.6 4.2 c-2.52-1.444-5.828-2.117-9.917-2.079c-2.597 0.024-4.883 0.087-6.96 0.946c-3.375-3.915-2.688-5.679-4.646-8.141 c-2.2-2.765-6.756-2.729-8.095 0.08c-1.097 2.3 1 4.1 2.8 4.915c2.317 1.1 3.9 2 5.5 6.3 c-2.618 2.48-3.867 5.975-3.858 10.936c0.021 11.5 8 14 7.8 24.259h14.843c-0.059-11.63 8.531-12.582 8.531-24.177 c0-4.896 0.23-7.762-2.08-10.235c0.121-0.231 0.979-1.629 2.252-1.71c0.949-0.061 2.7 0.7 3.5 2.4 c0.797 1.6 1.7 4.5 4 3.67C57.346 26.7 56.4 22.8 55.1 20.152z M21.227 28.861c0-1.473 1.451-2.667 3.242-2.667 c1.79 0 3.2 1.2 3.2 2.667s-1.451 2.667-3.241 2.667C22.678 31.5 21.2 30.3 21.2 28.861z M31.973 46.1 c-4.76 0.003-9.027-2.872-9.027-6.647c0-2.298 16.892-2.257 17.316-0.41C40.918 41.9 35.9 46.1 32 46.12z M38.237 31.626c-1.79 0-3.241-1.194-3.241-2.667s1.451-2.667 3.241-2.667s3.241 1.2 3.2 2.667S40.027 31.6 38.2 31.626z "/></g></g></g></svg>